<svg width="32" height="32" viewBox="0 0 32 32" fill="none" xmlns="http://www.w3.org/2000/svg">
<path d="M15 24V29.3333C15 29.8856 15.4477 30.3333 16 30.3333C16.5523 30.3333 17 29.8856 17 29.3333V24C17 23.4477 16.5523 23 16 23C15.4477 23 15 23.4477 15 24Z" fill="#66AFEB"/>
<path d="M17.2929 25.3738C17.6834 25.7643 18.3166 25.7643 18.7071 25.3738C19.0976 24.9833 19.0976 24.3501 18.7071 23.9596L16.7071 21.9596C16.3166 21.5691 15.6834 21.5691 15.2929 21.9596L13.2929 23.9596C12.9024 24.3501 12.9024 24.9833 13.2929 25.3738C13.6834 25.7643 14.3166 25.7643 14.7071 25.3738L16 24.0809L17.2929 25.3738Z" fill="#66AFEB"/>
<path d="M16.0006 10.397C11.4331 10.397 7.73047 14.0996 7.73047 18.6671H24.2707C24.2707 14.0996 20.568 10.397 16.0006 10.397Z" fill="url(#paint0_linear_870_9340)"/>
<path fill-rule="evenodd" clip-rule="evenodd" d="M19.7731 9.55686C20.5035 9.8593 21.3408 9.51239 21.6432 8.78202L22.2517 7.31261C22.5541 6.58224 22.2072 5.74497 21.4768 5.44253C20.7465 5.14008 19.9092 5.48699 19.6067 6.21737L18.9983 7.68677C18.6958 8.41715 19.0427 9.25441 19.7731 9.55686ZM13.0008 7.68724C13.3034 8.41756 12.9567 9.25489 12.2264 9.55749C11.496 9.86008 10.6587 9.51334 10.3561 8.78303L9.74733 7.31375C9.44474 6.58343 9.79148 5.7461 10.5218 5.4435C11.2521 5.14091 12.0894 5.48765 12.392 6.21796L13.0008 7.68724ZM25.8847 13.0226C25.1544 13.3252 24.8077 14.1625 25.1103 14.8929C25.4129 15.6232 26.2502 15.9699 26.9805 15.6673L28.4498 15.0585C29.1801 14.756 29.5268 13.9186 29.2243 13.1883C28.9217 12.458 28.0843 12.1112 27.354 12.4138L25.8847 13.0226ZM5.02051 15.6694C5.75089 15.9718 6.58815 15.6249 6.8906 14.8945C7.19304 14.1642 6.84614 13.3269 6.11576 13.0244L4.64636 12.416C3.91598 12.1135 3.07871 12.4604 2.77627 13.1908C2.47382 13.9212 2.82073 14.7585 3.55111 15.0609L5.02051 15.6694Z" fill="url(#paint1_linear_870_9340)"/>
<path opacity="0.2" fill-rule="evenodd" clip-rule="evenodd" d="M3.3335 19.3334C3.3335 18.9652 3.63197 18.6667 4.00016 18.6667H28.0002C28.3684 18.6667 28.6668 18.9652 28.6668 19.3334V20C28.6668 20.3682 28.3684 20.6667 28.0002 20.6667H4.00016C3.63197 20.6667 3.3335 20.3682 3.3335 20V19.3334Z" fill="black"/>
<defs>
<linearGradient id="paint0_linear_870_9340" x1="7.84073" y1="10.397" x2="7.84073" y2="18.5568" gradientUnits="userSpaceOnUse">
<stop stop-color="#FFC227"/>
<stop offset="1" stop-color="#FFB300"/>
</linearGradient>
<linearGradient id="paint1_linear_870_9340" x1="2.84477" y1="5.33325" x2="2.84477" y2="15.6394" gradientUnits="userSpaceOnUse">
<stop stop-color="#FFC227"/>
<stop offset="1" stop-color="#FFB300"/>
</linearGradient>
</defs>
</svg>
