<svg width="32" height="32" viewBox="0 0 32 32" fill="none" xmlns="http://www.w3.org/2000/svg">
<path d="M15 28V22.6667C15 22.1144 15.4477 21.6667 16 21.6667C16.5523 21.6667 17 22.1144 17 22.6667V28C17 28.5523 16.5523 29 16 29C15.4477 29 15 28.5523 15 28Z" fill="#66AFEB"/>
<path d="M17.2929 26.6262C17.6834 26.2357 18.3166 26.2357 18.7071 26.6262C19.0976 27.0167 19.0976 27.6499 18.7071 28.0404L16.7071 30.0404C16.3166 30.4309 15.6834 30.4309 15.2929 30.0404L13.2929 28.0404C12.9024 27.6499 12.9024 27.0167 13.2929 26.6262C13.6834 26.2357 14.3166 26.2357 14.7071 26.6262L16 27.9191L17.2929 26.6262Z" fill="#66AFEB"/>
<path d="M16.0006 10.3971C11.4331 10.3971 7.73047 14.0997 7.73047 18.6672H24.2707C24.2707 14.0997 20.568 10.3971 16.0006 10.3971Z" fill="url(#paint0_linear_870_9362)"/>
<path fill-rule="evenodd" clip-rule="evenodd" d="M19.7731 9.55698C20.5035 9.85942 21.3408 9.51252 21.6432 8.78214L22.2517 7.31274C22.5541 6.58236 22.2072 5.74509 21.4768 5.44265C20.7465 5.1402 19.9092 5.48711 19.6067 6.21749L18.9983 7.68689C18.6958 8.41727 19.0427 9.25454 19.7731 9.55698ZM13.0008 7.68736C13.3034 8.41768 12.9567 9.25502 12.2264 9.55761C11.496 9.8602 10.6587 9.51347 10.3561 8.78315L9.74733 7.31387C9.44474 6.58356 9.79148 5.74622 10.5218 5.44363C11.2521 5.14103 12.0894 5.48777 12.392 6.21808L13.0008 7.68736ZM25.8847 13.0227C25.1544 13.3253 24.8077 14.1627 25.1103 14.893C25.4129 15.6233 26.2502 15.97 26.9805 15.6674L28.4498 15.0587C29.1801 14.7561 29.5268 13.9187 29.2243 13.1884C28.9217 12.4581 28.0843 12.1114 27.354 12.414L25.8847 13.0227ZM5.02051 15.6695C5.75089 15.9719 6.58815 15.625 6.8906 14.8947C7.19304 14.1643 6.84614 13.327 6.11576 13.0246L4.64636 12.4161C3.91598 12.1136 3.07871 12.4606 2.77627 13.1909C2.47382 13.9213 2.82073 14.7586 3.55111 15.061L5.02051 15.6695Z" fill="url(#paint1_linear_870_9362)"/>
<path opacity="0.2" fill-rule="evenodd" clip-rule="evenodd" d="M3.3335 19.3334C3.3335 18.9652 3.63197 18.6667 4.00016 18.6667H28.0002C28.3684 18.6667 28.6668 18.9652 28.6668 19.3334V20C28.6668 20.3682 28.3684 20.6667 28.0002 20.6667H4.00016C3.63197 20.6667 3.3335 20.3682 3.3335 20V19.3334Z" fill="black"/>
<defs>
<linearGradient id="paint0_linear_870_9362" x1="7.84073" y1="10.3971" x2="7.84073" y2="18.5569" gradientUnits="userSpaceOnUse">
<stop stop-color="#FFC227"/>
<stop offset="1" stop-color="#FFB300"/>
</linearGradient>
<linearGradient id="paint1_linear_870_9362" x1="2.84477" y1="5.33337" x2="2.84477" y2="15.6395" gradientUnits="userSpaceOnUse">
<stop stop-color="#FFC227"/>
<stop offset="1" stop-color="#FFB300"/>
</linearGradient>
</defs>
</svg>
